<?xml version="1.0" encoding="UTF-8"?>
<svg width="62px" height="70px" viewBox="0 0 62 70" version="1.1" xmlns="http://www.w3.org/2000/svg" xmlns:xlink="http://www.w3.org/1999/xlink">
    <!-- Generator: Sketch 64 (93537) - https://sketch.com -->
    <title>Group 8</title>
    <desc>Created with Sketch.</desc>
    <g id="Artboard-App" stroke="none" stroke-width="1" fill-rule="evenodd">
        <g id="Artboard" transform="translate(-236.000000, -475.000000)" fill-rule="evenodd">
            <g id="Group-6" transform="translate(235.000000, 321.000000)">
                <g id="Group-5" transform="translate(-0.000000, 0.000000)">
                    <g id="Group-7" transform="translate(0.000000, 111.000000)">
                        <g id="Group-8" transform="translate(-0.000000, 43.000000)">
                            <g id="Group-4" transform="translate(12.000000, 0.000000)">
                                <path d="M20.7594937,0 C32.2246454,0 41.5189873,9.2943419 41.5189873,20.7594937 C41.5189873,24.0292668 40.7630353,27.1224778 39.4163687,29.8738892 L39.4936709,29.8734177 L39.023352,30.6364118 C38.6542333,31.3175278 38.248125,31.9756729 37.8077212,32.608153 L20.7594937,60.2531646 L3.70773987,32.6030872 C3.27033668,31.9745189 2.86679846,31.3206201 2.49976796,30.6440337 L2.02531646,29.8734177 L2.10261863,29.8738892 C0.755952068,27.1224778 0,24.0292668 0,20.7594937 C0,9.2943419 9.2943419,0 20.7594937,0 Z M20.5063291,9.11392405 C15.3330289,9.11392405 11.1392405,13.3077125 11.1392405,18.4810127 C11.1392405,23.6543128 15.3330289,27.8481013 20.5063291,27.8481013 C25.6796293,27.8481013 29.8734177,23.6543128 29.8734177,18.4810127 C29.8734177,13.3077125 25.6796293,9.11392405 20.5063291,9.11392405 Z" id="Combined-Shape"></path>
                            </g>
                            <rect id="Rectangle" x="2" y="66" width="60" height="4" rx="2"></rect>
                            <rect id="Rectangle" transform="translate(58.000000, 59.000000) rotate(-17.000000) translate(-58.000000, -59.000000) " x="56" y="48" width="4" height="22" rx="2"></rect>
                            <rect id="Rectangle" transform="translate(6.000000, 59.000000) scale(-1, 1) rotate(-17.000000) translate(-6.000000, -59.000000) " x="4" y="48" width="4" height="22" rx="2"></rect>
                            <rect id="Rectangle" x="46" y="48" width="11" height="4" rx="2"></rect>
                            <rect id="Rectangle" x="7" y="48" width="11" height="4" rx="2"></rect>
                        </g>
                    </g>
                </g>
            </g>
        </g>
    </g>
</svg>