<?xml version="1.0" ?><svg data-name="icons export" id="icons_export" viewBox="0 0 72 72" xmlns="http://www.w3.org/2000/svg"><path d="M36,62a2,2,0,0,1-1.54-.72C33.63,60.28,14,36.58,14,24a22,22,0,0,1,44,0c0,12.58-19.63,36.28-20.46,37.28A2,2,0,0,1,36,62ZM36,6A18,18,0,0,0,18,24c0,8.47,11.84,25.09,18,32.83C42.16,49.09,54,32.47,54,24A18,18,0,0,0,36,6Z"/><path d="M36,34A10,10,0,1,1,46,24,10,10,0,0,1,36,34Zm0-16a6,6,0,1,0,6,6A6,6,0,0,0,36,18Z"/><path d="M68,70H4a2,2,0,0,1-1.79-2.89l8-16A2,2,0,0,1,12,50h8a2,2,0,0,1,0,4H13.24l-6,12H64.76l-6-12H52a2,2,0,0,1,0-4h8a2,2,0,0,1,1.79,1.11l8,16A2,2,0,0,1,68,70Z"/></svg>