<?xml version="1.0" ?><svg id="Слой_1" style="enable-background:new 0 0 300 300;" version="1.1" viewBox="0 0 300 300" xml:space="preserve" xmlns="http://www.w3.org/2000/svg" xmlns:xlink="http://www.w3.org/1999/xlink"><g><g><g><path d="M166.52,221.487c-5.419-10.063-10.098-18.754-16.77-18.754c-0.285,0-0.558-0.055-0.808-0.155     c-7.116,0.713-11.663,9.498-16.894,19.602c-3.272,6.321-6.745,13.019-11.257,18.515c3.814,2.413,13.658,7.676,27.072,7.676h4.165     c13.118,0,23.002-4.835,27.097-7.231C173.946,235.268,170.026,227.999,166.52,221.487z" style="fill:#333333;"/></g><g><path d="M165.211,159.698c4.863-5.46,6.839-9.735,6.689-11.026c-0.284-2.435-12.679-4.816-21.724-4.816     c-9.222,0-21.856,2.381-22.139,4.816c-0.15,1.291,1.826,5.564,6.689,11.026c5.455,6.126,11.638,10.405,15.036,10.405h0.415     C153.574,170.103,159.757,165.824,165.211,159.698z" style="fill:#333333;"/></g><g><path d="M36.463,107.667c3.436,8.151,6.46,11.444,7.523,11.884c2.31-1.929,6.577-15.421,10.021-26.313     c4.678-14.791,9.886-31.26,15.678-40.737c-8.966,3.585-29.061,14.81-37.367,26.414C29.503,82.849,31.324,95.479,36.463,107.667z" style="fill:#333333;"/></g><g><path d="M199.064,146.576c-15.342-13.925-41.2-13.859-49.687-13.828l-0.848,0.001l-0.848-0.001     c-7.79-0.041-31.518-0.089-46.852,13.828c-24.767,22.48-23.439,80.665-21.2,92.726c5.051,5.446,10.973,8.909,17.871,8.909     c0.182,0,0.362-0.003,0.545-0.007c15.844-0.417,23.109-14.452,30.136-28.027c5.431-10.491,10.583-20.443,19.527-21.837V174.21     c-6.685-1.423-13.989-9.093-16.235-11.614c-1.959-2.2-8.308-9.742-7.762-14.425c0.997-8.573,25.427-8.671,26.466-8.671     c1.023,0,25.056,0.098,26.052,8.671c0.545,4.683-5.804,12.226-7.762,14.425c-2.264,2.542-9.672,10.321-16.402,11.649v24.352     c7.91,1.543,12.967,10.933,18.292,20.825c7.157,13.291,15.267,28.356,31.492,28.782c0.182,0.004,0.365,0.007,0.545,0.007     c6.568,0,12.25-3.143,17.14-8.144C221.845,228.607,223.717,168.952,199.064,146.576z M111.376,154.09     c-0.134,0.153-13.432,15.532-17.305,31.947c-3.71,15.717-3.413,26.129-3.236,32.351c0.033,1.135,0.06,2.128,0.06,2.983     c0,1.203-0.975,2.178-2.178,2.178c-1.203,0-2.178-0.976-2.178-2.178c0-0.82-0.028-1.77-0.058-2.859     c-0.184-6.435-0.49-17.204,3.35-33.476c4.126-17.485,17.689-33.152,18.265-33.812c0.791-0.903,2.168-0.997,3.073-0.207     C112.074,151.808,112.167,153.184,111.376,154.09z M213.021,218.511c-0.031,1.089-0.058,2.039-0.058,2.859     c0,1.203-0.975,2.178-2.178,2.178s-2.178-0.976-2.178-2.178c0-0.855,0.028-1.848,0.06-2.983     c0.177-6.222,0.474-16.634-3.236-32.351c-3.873-16.415-17.171-31.794-17.305-31.947c-0.791-0.906-0.698-2.282,0.208-3.073     c0.906-0.79,2.282-0.696,3.073,0.207c0.576,0.66,14.139,16.327,18.265,33.812C213.511,201.307,213.204,212.076,213.021,218.511z" style="fill:#333333;"/></g><g><circle cx="200.535" cy="122.618" r="3.083" style="fill:#333333;"/></g><g><path d="M58.162,94.551c-1.144,3.617-2.164,6.806-3.103,9.662l7.422,10.937     c5.187-12.627,11.94-24.517,20.208-32.784c5.514-5.514,11.338-9.412,17.12-12.165c-4.031-4.804-14.486-16.26-24.191-18.567     C69.331,59.269,63.15,78.777,58.162,94.551z" style="fill:#333333;"/></g><g><path d="M54.551,174.129c1.404,8.423,7.261,39.452,19.952,58.579     c-1.482-20.788,0.412-68.497,23.397-89.357c4.633-4.206,9.923-7.229,15.318-9.404c0.274-4.305,0.66-18.102-5.062-23.903     c-1.887-1.913-4.266-2.72-7.271-2.437c-16.055,1.459-25.01,9.267-26.619,23.203c-0.138,1.196-1.229,2.055-2.414,1.915     c-1.196-0.138-2.052-1.218-1.915-2.414c1.825-15.814,12.676-25.417,30.553-27.044c4.329-0.388,7.951,0.859,10.771,3.722     c6.278,6.369,6.629,19.239,6.404,25.36c12.479-3.998,24.728-3.97,30.028-3.958l0.835,0.001l0.836-0.001     c5.793-0.021,19.279-0.052,32.566,4.06c-0.233-6.078,0.087-19.057,6.4-25.462c2.822-2.863,6.446-4.112,10.771-3.722     c17.877,1.627,28.728,11.23,30.553,27.044c0.138,1.196-0.719,2.276-1.915,2.414c-1.191,0.132-2.276-0.719-2.414-1.915     c-1.608-13.936-10.564-21.744-26.619-23.203c-3.007-0.277-5.387,0.523-7.274,2.439c-5.233,5.309-5.483,18.072-5.065,23.944     c5.609,2.173,11.022,5.183,15.624,9.36c22.937,20.818,24.362,69.758,22.704,90.386c13.174-19.023,19.215-51.031,20.645-59.607     c2.381-14.285-8.856-66.321-31.218-88.683c-19.146-19.145-39.49-17.506-49.27-16.724c-1.556,0.125-2.785,0.224-3.785,0.224     h-18.593c-0.887,0-2.069-0.091-3.566-0.206c-10.121-0.773-33.839-2.595-53.14,16.706     C63.406,107.809,52.17,159.846,54.551,174.129z M99.357,115.178c4.102,0,7.439,3.337,7.439,7.44c0,4.102-3.337,7.439-7.439,7.439     s-7.44-3.337-7.44-7.439C91.917,118.516,95.255,115.178,99.357,115.178z M200.535,130.057c-4.102,0-7.44-3.337-7.44-7.439     c0-4.103,3.337-7.44,7.44-7.44s7.439,3.337,7.439,7.44C207.975,126.72,204.638,130.057,200.535,130.057z" style="fill:#333333;"/></g><g><path d="M256.035,119.568c0.96-0.369,4.019-3.641,7.502-11.901c5.14-12.189,6.96-24.818,4.145-28.753     C259.375,67.31,239.28,56.086,230.314,52.5c5.792,9.475,11.001,25.946,15.679,40.737     C249.448,104.165,253.73,117.706,256.035,119.568z" style="fill:#333333;"/></g><g><path d="M237.451,115.25l7.49-11.037c-0.938-2.856-1.959-6.044-3.103-9.661     c-4.99-15.779-11.172-35.294-17.462-42.924c-8.604,2.081-18.408,11.625-24.102,18.453c5.588,2.755,11.33,6.686,16.929,12.285     C225.492,90.655,232.259,102.586,237.451,115.25z" style="fill:#333333;"/></g><g><circle cx="99.357" cy="122.618" r="3.083" style="fill:#333333;"/></g></g></g></svg>